<svg version="1" xmlns="http://www.w3.org/2000/svg" width="933.333" height="933.333" viewBox="0 0 700.000000 700.000000"><path d="M97.5 174.2c-17.6 2.2-33.1 17.2-36.4 35.1-.5 3.1-.9 61-.9 145.5 0 77.2-.3 140.6-.6 140.9-.3.3-10.4.6-22.3.7-29.8.2-29.1-.4-29.1 23.7 0 20.1 2.2 25.8 12.3 31.2l4 2.2h651l4.2-2.2c5.2-2.8 9.8-8.4 11.1-13.4.5-2.1 1-10.5 1-18.6 0-23.1-.1-23.2-29.6-22.9-11.2 0-20.9-.2-21.4-.5-.7-.5-1-46.5-1-141.9 0-107.6-.3-142.5-1.3-146.4-1.9-8.1-5.5-14.5-11.4-20.6-5.8-5.9-10-8.5-18.6-11.5-4.7-1.7-18.5-1.8-255-1.9-137.6-.1-252.7.2-256 .6zm500.9 34.2c2.1.4 4.1 1.7 5.2 3.4 1.8 2.6 1.9 8.4 1.9 140.9l.1 138.2H94.4l.1-138.2c0-103 .3-138.7 1.2-140.2 1.2-2.2 4.5-4.2 7.7-4.7 3.9-.6 491.7 0 495 .6z"/></svg>