<svg width="512" height="512" viewBox="0 0 512 512" fill="none" xmlns="http://www.w3.org/2000/svg">
<path d="M76 146.5H436C446.77 146.5 455.5 155.23 455.5 166V375C455.5 376.933 453.933 378.5 452 378.5H60C58.067 378.5 56.5 376.933 56.5 375V166C56.5 155.23 65.2304 146.5 76 146.5Z" stroke="black" stroke-width="25"/>
<circle cx="252" cy="143" r="4" fill="#FEFEFE"/>
<path d="M6 378C6 373.582 9.58172 370 14 370H498C502.418 370 506 373.582 506 378V396C506 404.837 498.837 412 490 412H22C13.1634 412 6 404.837 6 396V378Z" fill="black"/>
<path d="M221.48 235.72C217.592 235.72 214.616 234.616 212.552 232.408C210.488 230.2 209.456 227.08 209.456 223.048V196.552C209.456 192.52 210.488 189.4 212.552 187.192C214.616 184.984 217.592 183.88 221.48 183.88C225.368 183.88 228.344 184.984 230.408 187.192C232.472 189.4 233.504 192.52 233.504 196.552V223.048C233.504 227.08 232.472 230.2 230.408 232.408C228.344 234.616 225.368 235.72 221.48 235.72ZM221.48 228.52C224.216 228.52 225.584 226.864 225.584 223.552V196.048C225.584 192.736 224.216 191.08 221.48 191.08C218.744 191.08 217.376 192.736 217.376 196.048V223.552C217.376 226.864 218.744 228.52 221.48 228.52ZM241.02 184.6H248.94V227.8H261.972V235H241.02V184.6ZM267.93 184.6H280.026C283.962 184.6 286.914 185.656 288.882 187.768C290.85 189.88 291.834 192.976 291.834 197.056V222.544C291.834 226.624 290.85 229.72 288.882 231.832C286.914 233.944 283.962 235 280.026 235H267.93V184.6ZM279.882 227.8C281.178 227.8 282.162 227.416 282.834 226.648C283.554 225.88 283.914 224.632 283.914 222.904V196.696C283.914 194.968 283.554 193.72 282.834 192.952C282.162 192.184 281.178 191.8 279.882 191.8H275.85V227.8H279.882ZM171.038 270.6H178.958V313.8H191.99V321H171.038V270.6ZM204.35 270.6H215.078L223.286 321H215.366L213.926 310.992V311.136H204.926L203.486 321H196.142L204.35 270.6ZM212.99 304.296L209.462 279.384H209.318L205.862 304.296H212.99ZM229.288 270.6H240.952C244.888 270.6 247.84 271.656 249.808 273.768C251.776 275.88 252.76 278.976 252.76 283.056V288.024C252.76 292.104 251.776 295.2 249.808 297.312C247.84 299.424 244.888 300.48 240.952 300.48H237.208V321H229.288V270.6ZM240.952 293.28C242.248 293.28 243.208 292.92 243.832 292.2C244.504 291.48 244.84 290.256 244.84 288.528V282.552C244.84 280.824 244.504 279.6 243.832 278.88C243.208 278.16 242.248 277.8 240.952 277.8H237.208V293.28H240.952ZM252.542 313.368H260.174V321H252.542V313.368ZM269.191 277.8H260.911V270.6H285.391V277.8H277.111V321H269.191V277.8ZM302.552 321.72C298.664 321.72 295.688 320.616 293.624 318.408C291.56 316.2 290.528 313.08 290.528 309.048V282.552C290.528 278.52 291.56 275.4 293.624 273.192C295.688 270.984 298.664 269.88 302.552 269.88C306.44 269.88 309.416 270.984 311.48 273.192C313.544 275.4 314.576 278.52 314.576 282.552V309.048C314.576 313.08 313.544 316.2 311.48 318.408C309.416 320.616 306.44 321.72 302.552 321.72ZM302.552 314.52C305.288 314.52 306.656 312.864 306.656 309.552V282.048C306.656 278.736 305.288 277.08 302.552 277.08C299.816 277.08 298.448 278.736 298.448 282.048V309.552C298.448 312.864 299.816 314.52 302.552 314.52ZM322.092 270.6H333.756C337.692 270.6 340.644 271.656 342.612 273.768C344.58 275.88 345.564 278.976 345.564 283.056V288.024C345.564 292.104 344.58 295.2 342.612 297.312C340.644 299.424 337.692 300.48 333.756 300.48H330.012V321H322.092V270.6ZM333.756 293.28C335.052 293.28 336.012 292.92 336.636 292.2C337.308 291.48 337.644 290.256 337.644 288.528V282.552C337.644 280.824 337.308 279.6 336.636 278.88C336.012 278.16 335.052 277.8 333.756 277.8H330.012V293.28H333.756Z" fill="black"/>
<rect x="406" y="387" width="32" height="8" rx="4" fill="white"/>
</svg>
