<svg width="512" height="512" viewBox="0 0 512 512" fill="none" xmlns="http://www.w3.org/2000/svg">
<path d="M76 139.5H436C446.77 139.5 455.5 148.23 455.5 159V368C455.5 369.933 453.933 371.5 452 371.5H60C58.067 371.5 56.5 369.933 56.5 368V159C56.5 148.23 65.2304 139.5 76 139.5Z" stroke="black" stroke-width="25"/>
<circle cx="252" cy="136" r="4" fill="#FEFEFE"/>
<path d="M6 371C6 366.582 9.58172 363 14 363H498C502.418 363 506 366.582 506 371V389C506 397.837 498.837 405 490 405H22C13.1634 405 6 397.837 6 389V371Z" fill="black"/>
<rect x="406" y="380" width="32" height="8" rx="4" fill="white"/>
</svg>
